<svg version="1.0" xmlns="http://www.w3.org/2000/svg"
 width="1em" height="1em" viewBox="0 0 400 400"
 preserveAspectRatio="xMidYMid meet">
    <defs>
        <mask id="logo-mask">
            <rect width="400" height="400" fill="white"/>
            <g transform="translate(0.000000,400.000000) scale(0.100000,-0.100000)" fill="black" stroke="none">
                <path d="M1060 2931 c-6 -13 -10 -143 -10 -354 0 -305 2 -337 18 -355 12 -15
                43 -24 113 -36 456 -74 841 -404 988 -847 12 -36 30 -109 40 -163 11 -54 24
                -103 29 -108 14 -14 682 -11 699 4 10 8 13 79 13 339 0 327 0 328 -22 343 -12
                9 -35 16 -51 16 -78 0 -290 69 -418 137 -346 182 -591 522 -658 914 -10 59
                -22 112 -25 118 -5 8 -113 11 -356 11 -335 0 -350 -1 -360 -19z"/>
                <path d="M2020 2930 c-24 -44 32 -250 105 -388 79 -149 236 -325 338 -378 37
                -20 54 -13 143 57 183 146 322 402 341 629 4 49 2 74 -7 85 -11 13 -71 15
                -461 15 -437 0 -449 0 -459 -20z"/>
                <path d="M2762 2135 c-36 -30 -45 -69 -27 -112 16 -38 41 -53 89 -53 53 0 91
                37 91 90 0 35 -6 47 -33 71 -40 36 -80 38 -120 4z"/>
                <path d="M1174 1960 c-47 -19 -69 -92 -43 -142 14 -26 67 -48 102 -41 34 7 77
                56 77 88 0 74 -69 122 -136 95z"/>
                <path d="M1423 1802 c-70 -56 -183 -181 -221 -245 -54 -90 -101 -207 -122
                -308 -23 -110 -25 -162 -7 -177 21 -17 893 -18 914 -1 46 39 -56 329 -172 489
                -88 122 -271 280 -323 280 -11 0 -42 -17 -69 -38z"/>
            </g>
        </mask>
    </defs>
    <circle cx="200" cy="200" r="200" fill="currentColor" mask="url(#logo-mask)"/>
</svg>
