<?xml version="1.0" encoding="utf-8"?>
<!-- Generator: Adobe Illustrator 26.0.3, SVG Export Plug-In . SVG Version: 6.00 Build 0)  -->
<svg version="1.1" xmlns="http://www.w3.org/2000/svg" xmlns:xlink="http://www.w3.org/1999/xlink" x="0px" y="0px"
	 viewBox="0 0 280 280" style="enable-background:new 0 0 280 280;" xml:space="preserve">
<style type="text/css">
	.st0{display:none;}
	.st1{display:inline;}
	.st2{display:none;fill:none;stroke:#3a3a3a;stroke-width:15;stroke-linecap:round;stroke-linejoin:round;stroke-miterlimit:10;}
	.st3{fill:none;stroke:#3a3a3a;stroke-width:18;stroke-linecap:round;stroke-linejoin:round;stroke-miterlimit:10;}
	.st4{fill:none;stroke:#3a3a3a;stroke-width:15;stroke-linecap:round;stroke-linejoin:round;stroke-miterlimit:10;}
	.st5{fill:none;stroke:#3a3a3a;stroke-width:30;stroke-linecap:round;stroke-linejoin:round;stroke-miterlimit:10;}
</style>
<g id="Layer_1" class="st0">
	<path id="Arrows" class="st1" d="M35.5,20.6H92c5.6,0,10.1-4.5,10.1-10.1v-0.2c0-5.6-4.5-10.1-10.1-10.1H10.3
		C4.8,0.2,0.2,4.8,0.2,10.3v81.8c0,5.6,4.5,10.1,10.1,10.1h0.1c5.6,0,10.1-4.5,10.1-10.1V35.5l85.2,84.7c1.9,1.9,4.4,2.9,7.1,2.9
		c2.7,0,5.2-1,7.1-3c3.9-3.9,3.9-10.3,0-14.3L35.5,20.6z M269.7,0.2H188c-5.6,0-10.1,4.5-10.1,10.1v0c0,5.7,4.6,10.3,10.3,10.3h56.4
		l-84.7,85.3c-3.9,3.9-3.9,10.3,0,14.3c1.9,1.9,4.4,3,7.1,3c2.7,0,5.2-1,7.1-2.9l85.2-84.8v56.6c0,5.6,4.5,10.1,10.1,10.1h0.1
		c5.6,0,10.1-4.5,10.1-10.1V10.3C279.8,4.8,275.2,0.2,269.7,0.2z M113,157c-2.7,0-5.2,1-7.1,2.9l-85.2,84.8v-56.6
		c0-5.6-4.5-10.1-10.1-10.1h-0.1c-5.6,0-10.1,4.5-10.1,10.1v81.7c0,5.6,4.5,10.1,10.1,10.1H92c5.6,0,10.1-4.5,10.1-10.1v-0.1
		c0-5.6-4.5-10.1-10.1-10.1H35.5l84.7-85.3c3.9-3.9,3.9-10.3,0-14.3C118.2,158.1,115.7,157,113,157z M269.6,178h-0.1
		c-5.6,0-10.1,4.5-10.1,10.1v56.6L174.1,160c-1.9-1.9-4.4-2.9-7.1-2.9c-2.7,0-5.2,1-7.1,3c-3.9,3.9-3.9,10.3,0,14.3l84.7,85.2H188
		c-5.6,0-10.1,4.5-10.1,10.1v0.1c0,5.6,4.5,10.1,10.1,10.1h81.7c5.6,0,10.1-4.5,10.1-10.1v-81.7C279.8,182.5,275.2,178,269.6,178z"
		/>
</g>
<g id="Layer_2">
	<polyline class="st2" points="10.7,169.7 140,243.2 269.3,169.7 	"/>
	<polyline class="st3" points="10.7,144.7 140,218.2 269.3,144.7 	"/>
	<polyline class="st3" points="10.7,144.7 140,71.2 269.3,144.7 	"/>
	<g>
		<line class="st4" x1="199.3" y1="145.1" x2="199.3" y2="104.9"/>
		<line class="st4" x1="170.8" y1="161.7" x2="170.8" y2="151.3"/>
		<line class="st4" x1="141.1" y1="178.1" x2="141.1" y2="178.1"/>
	</g>
	<g>
		<line class="st4" x1="169.3" y1="127.2" x2="169.3" y2="87.9"/>
		<line class="st4" x1="140.8" y1="145.7" x2="140.8" y2="135.3"/>
		<line class="st4" x1="111.1" y1="161.1" x2="111.1" y2="161.1"/>
	</g>
	<g>
		<line class="st4" x1="140.3" y1="110.4" x2="140" y2="71.2"/>
		<line class="st4" x1="111.8" y1="130.6" x2="111.8" y2="120.3"/>
		<line class="st4" x1="82.1" y1="145.1" x2="82.1" y2="145.1"/>
	</g>
	<g>
		<polyline class="st5" points="229.1,272.1 272.3,272.1 272.3,228.9 		"/>
		<line class="st2" x1="272.3" y1="272.1" x2="231.1" y2="231"/>
	</g>
	<g>
		<polyline class="st5" points="50.9,7.9 7.7,7.9 7.7,51.1 		"/>
		<line class="st2" x1="7.7" y1="7.9" x2="48.9" y2="49"/>
	</g>
	<g>
		<polyline class="st5" points="7.7,228.9 7.7,272.1 50.9,272.1 		"/>
		<line class="st2" x1="7.7" y1="272.1" x2="48.9" y2="231"/>
	</g>
	<g>
		<polyline class="st5" points="272.3,51.1 272.3,7.9 229.1,7.9 		"/>
		<line class="st2" x1="272.3" y1="7.9" x2="231.1" y2="49"/>
	</g>
</g>
</svg>
